<?xml version="1.0" standalone="no"?>
<!DOCTYPE svg PUBLIC "-//W3C//DTD SVG 20010904//EN"
 "http://www.w3.org/TR/2001/REC-SVG-20010904/DTD/svg10.dtd">
<svg version="1.0" xmlns="http://www.w3.org/2000/svg"
 width="250.000000pt" height="250.000000pt" viewBox="0 0 250.000000 250.000000"
 preserveAspectRatio="xMidYMid meet">
<metadata>
Created by potrace 1.14, written by Peter Selinger 2001-2017
</metadata>
<g transform="translate(0.000000,250.000000) scale(0.100000,-0.100000)"
fill="#000000" stroke="none">
<path d="M1139 2436 c-2 -2 -29 -7 -59 -10 -63 -8 -140 -27 -221 -55 -70 -24
-213 -91 -217 -103 -2 -4 -8 -8 -13 -8 -9 0 -95 -60 -148 -104 -62 -51 -156
-158 -209 -236 -109 -160 -167 -308 -200 -505 -9 -52 -9 -275 0 -340 11 -90
68 -285 90 -309 4 -6 8 -18 8 -28 0 -10 5 -18 10 -18 6 0 10 -5 10 -11 0 -6
10 -25 22 -42 13 -18 22 -34 22 -37 -2 -7 54 -88 100 -145 43 -52 113 -123
162 -164 86 -70 298 -191 337 -191 7 0 17 -4 22 -9 13 -11 110 -37 205 -55 73
-14 310 -15 388 -2 205 35 428 139 584 274 64 55 152 149 188 202 13 19 27 37
30 40 22 21 116 218 144 305 42 131 54 222 51 378 -2 78 -6 158 -10 177 -10
53 -35 148 -52 199 -21 65 -101 227 -118 241 -8 7 -15 17 -15 22 0 9 -30 51
-85 117 -20 25 -89 94 -143 144 -17 15 -35 27 -40 27 -6 0 -12 4 -14 9 -5 14
-128 90 -203 125 -82 39 -208 82 -262 91 -22 3 -50 8 -63 11 -30 7 -294 16
-301 10z"/>
</g>
</svg>
